# xmcd CD database file
#
# Track frame offsets:
#	150
#	26627
#	101590
#	127950
#	165280
#	206930
#	227997
#	252137
#
# Disc length: 3664 seconds
#
# Revision: 7
# Processed by: cddbd v1.5.2PL0 Copyright (c) Steve Scherf et al.
# Submitted via: CDex 1.51
#
DISCID=640e4e08
DTITLE=Paul Personne - Route 97 - CD2 - Live @ L'Olympia Paris, 1, 2 and 3 Avril 1997
DYEAR=1997
DGENRE=Blues
TTITLE0=Loco Loco (Live)
TTITLE1=Perdant Blues (Live)
TTITLE2=Funambule Déprim' (Live)
TTITLE3=Le Bourdon (Live)
TTITLE4=Barjoland (Live)
TTITLE5=Lucy (Live)
TTITLE6=Général Lee (Live)
TTITLE7=Ça Va Rouler (Live)
EXTD=Enregistré en public à l'Olympia de Paris les 1, 2 et 3 avril 1997 YEAR: 1997
EXTT0=
EXTT1=
EXTT2=
EXTT3=
EXTT4=
EXTT5=
EXTT6=
EXTT7=
PLAYORDER=
